<svg width="34" height="35" viewBox="0 0 34 35" fill="none" xmlns="http://www.w3.org/2000/svg">
<path d="M15.4934 6.18091C14.5735 4.45807 13.2044 2.4395 11.3353 1.14995C10.5902 0.635853 9.96448 0.374505 9.42368 0.591149C8.88287 0.806074 8.57898 1.43709 8.34534 2.34321C7.75879 4.6111 8.0055 7.07844 8.40253 9.01104" fill="white"/>
<path d="M14.4938 6.6811C13.8188 5.56624 12.8144 4.25916 11.4446 3.42511C10.8974 3.09249 10.4402 2.92367 10.0424 3.0624C9.64642 3.2028 9.42322 3.61064 9.25222 4.19565C8.82203 5.66318 9.00202 7.26109 9.29362 8.51134" fill="#FF769F"/>
<path d="M18.4917 6.18091C19.4729 4.45807 20.9333 2.4395 22.927 1.14995C23.7217 0.635853 24.3892 0.374505 24.9661 0.591149C25.5429 0.806074 25.8671 1.43709 26.1163 2.34321C26.7419 4.6111 26.4788 7.07844 26.0553 9.01104" fill="white"/>
<path d="M19.4917 6.6811C20.1667 5.56624 21.1711 4.25916 22.5409 3.42511C23.0881 3.09249 23.5452 2.92367 23.943 3.0624C24.339 3.2028 24.5622 3.61064 24.7332 4.19565C25.1634 5.66318 24.9834 7.26109 24.6918 8.51134" fill="#FF769F"/>
<path d="M16.944 5.01667C15.823 5.02171 12.6717 4.91922 9.64648 7.53193C7.61621 9.28606 6.80107 10.7176 5.98762 12.7943C5.11702 15.0189 4.79097 16.9915 4.65819 18.344C4.36071 18.5305 0.116966 20.9534 0.00267951 25.4731C-0.0645481 28.1245 1.13883 30.6313 2.98423 32.1519C4.16911 33.1281 5.36576 33.4389 7.75738 34.0589C10.2851 34.7142 12.6364 34.8201 14.7591 34.941C15.4684 34.9814 16.1961 35.0015 16.9928 34.9999C17.6398 34.9999 18.8264 34.9831 20.3205 34.8772C22.3525 34.7344 24.1508 34.5949 26.2282 34.0573C28.608 33.4423 29.798 33.1332 31.0013 32.1502C32.8518 30.6381 34.0501 28.1194 33.9829 25.4714C33.8686 20.9534 29.6248 18.5288 29.3274 18.3423C29.1946 16.9898 28.8685 15.0172 27.9979 12.7926C27.1862 10.7176 26.3693 9.28438 24.3391 7.53025C21.2752 4.88225 18.0583 5.00995 16.944 5.01499V5.01667Z" fill="white"/>
<path d="M21.2409 17.5075C21.6549 17.5075 21.9906 17.0599 21.9906 16.5079C21.9906 15.9558 21.6549 15.5083 21.2409 15.5083C20.8269 15.5083 20.4912 15.9558 20.4912 16.5079C20.4912 17.0599 20.8269 17.5075 21.2409 17.5075Z" fill="#FF769F"/>
<path d="M13.2424 17.5075C13.6564 17.5075 13.992 17.0599 13.992 16.5079C13.992 15.9558 13.6564 15.5083 13.2424 15.5083C12.8283 15.5083 12.4927 15.9558 12.4927 16.5079C12.4927 17.0599 12.8283 17.5075 13.2424 17.5075Z" fill="#FF769F"/>
<path d="M12.7449 14.509C13.7109 14.509 14.4941 13.8377 14.4941 13.0096C14.4941 12.1815 13.7109 11.5103 12.7449 11.5103C11.7788 11.5103 10.9956 12.1815 10.9956 13.0096C10.9956 13.8377 11.7788 14.509 12.7449 14.509Z" fill="#FF769F"/>
<path d="M21.241 14.509C22.207 14.509 22.9902 13.8377 22.9902 13.0096C22.9902 12.1815 22.207 11.5103 21.241 11.5103C20.2749 11.5103 19.4917 12.1815 19.4917 13.0096C19.4917 13.8377 20.2749 14.509 21.241 14.509Z" fill="#FF769F"/>
<path d="M16.9969 18.0073C14.0807 18.0073 6.26206 18.0073 3.23433 22.1076C2.92496 22.5275 2.10675 23.6354 2.0087 25.2025C1.87177 27.3909 3.22419 29.0587 3.78037 29.7415C7.23242 33.9954 14.238 33.9988 16.9783 34.0005C19.7119 34.0005 26.7444 34.0056 30.2049 29.7415C30.7594 29.0587 32.1135 27.3909 31.9766 25.2025C31.8786 23.6354 31.0604 22.5275 30.751 22.1076C27.7249 18.0073 19.9181 18.0073 16.9986 18.0073H16.9969Z" fill="#FF769F"/>
<path d="M12.0751 22.5056C11.5849 22.5056 11.143 22.1242 11.025 21.5596C10.8871 20.9007 11.2477 20.238 11.8275 20.0832C15.4829 19.1014 21.2618 19.6659 21.506 19.6905C22.1009 19.7509 22.5395 20.3456 22.4864 21.0215C22.4332 21.6975 21.9115 22.1959 21.315 22.1355C21.2585 22.1298 15.6375 21.5823 12.3227 22.4716C12.2396 22.4942 12.1549 22.5056 12.0734 22.5056H12.0751Z" fill="white"/>
<path d="M8.67213 23.7396C9.63654 23.3737 10.1983 22.4958 9.92683 21.7789C9.65538 21.062 8.65351 20.7775 7.68909 21.1435C6.72468 21.5095 6.16293 22.3873 6.43439 23.1042C6.70584 23.8211 7.70772 24.1056 8.67213 23.7396Z" fill="white"/>
</svg>
