<svg width="24" height="24" viewBox="0 0 24 24" fill="none" xmlns="http://www.w3.org/2000/svg">
<path d="M24 10.9074V13.0926C24 13.8841 23.358 14.5246 22.5681 14.5246H14.5252V22.568C14.5252 23.3595 13.8832 24 13.0934 24H10.9082C10.1168 24 9.47636 23.3579 9.47636 22.568V14.5246H1.43186C0.640445 14.5246 0 13.8825 0 13.0926V10.9074C0 10.1159 0.642034 9.4754 1.43186 9.4754H9.47477V1.43196C9.47477 0.640487 10.1168 0 10.9066 0H13.0918C13.8832 0 14.5236 0.642077 14.5236 1.43196V9.4754H22.5665C23.358 9.4754 23.9984 10.1175 23.9984 10.9074H24Z" fill="#8DD7B0"/>
</svg>
