<svg width="318" height="370" viewBox="0 0 318 370" fill="none" xmlns="http://www.w3.org/2000/svg">
<path d="M158.641 0.00056212C145.416 0.027227 88.3796 0.107221 45.0093 41.4644C-23.3994 106.7 5.77194 214.066 8.46509 223.385C39.2363 330.111 148.096 366.189 158.202 369.349C168.001 366.362 278.3 330.725 309.378 223.385C312.018 214.279 341.349 106.793 272.82 41.4511C229.223 -0.106097 171.814 -0.0127703 158.641 0.00056212Z" fill="#8DD7B0"/>
<path d="M127.964 87.8346C130.541 87.8346 132.63 84.8202 132.63 81.1018C132.63 77.3833 130.541 74.3689 127.964 74.3689C125.386 74.3689 123.297 77.3833 123.297 81.1018C123.297 84.8202 125.386 87.8346 127.964 87.8346Z" fill="#854343"/>
<path d="M190.533 87.8346C193.11 87.8346 195.199 84.8202 195.199 81.1018C195.199 77.3833 193.11 74.3689 190.533 74.3689C187.955 74.3689 185.866 77.3833 185.866 81.1018C185.866 84.8202 187.955 87.8346 190.533 87.8346Z" fill="#854343"/>
<path d="M188.173 244.344C188.799 263.236 175.36 279.168 158.921 279.168C142.483 279.168 129.043 263.236 129.67 244.344" fill="#FFA6A9"/>
<path d="M159.255 244.344V265.116" stroke="#854343" stroke-width="3.99973" stroke-miterlimit="10" stroke-linecap="round"/>
<path d="M158.961 98.6738C137.11 98.6738 78.5003 98.6605 55.7952 136.991C53.4753 140.911 47.3424 151.257 46.6091 165.909C45.5825 186.348 55.7285 201.933 59.8882 208.32C85.7664 248.064 138.27 248.09 158.815 248.104C179.307 248.104 232.023 248.144 257.955 208.32C262.114 201.933 272.26 186.361 271.234 165.909C270.501 151.27 264.368 140.924 262.048 136.991C239.369 98.7005 180.84 98.6872 158.961 98.6738Z" fill="#854343"/>
<path d="M121.324 135.818C117.591 135.818 114.204 133.258 113.311 129.472C112.271 125.045 115.004 120.606 119.431 119.566C147.309 112.98 191.386 116.766 193.252 116.926C197.785 117.326 201.132 121.326 200.732 125.859C200.332 130.392 196.346 133.738 191.799 133.338C191.373 133.298 148.495 129.618 123.217 135.591C122.577 135.738 121.937 135.818 121.311 135.818H121.324Z" fill="white"/>
<path d="M96.2492 146.439C103.499 143.691 107.724 137.103 105.686 131.726C103.648 126.349 96.1178 124.217 88.8676 126.966C81.6175 129.714 77.3925 136.301 79.4309 141.678C81.4693 147.056 88.9991 149.187 96.2492 146.439Z" fill="white"/>
</svg>
