<svg width="37" height="26" viewBox="0 0 37 26" fill="none" xmlns="http://www.w3.org/2000/svg">
<path d="M21.7008 13.0657C21.602 12.0642 21.3615 10.6055 20.717 8.9582C20.2776 7.83635 19.837 6.969 19.0469 6.07633C19.3419 4.68984 19.5153 2.93616 19.0772 1.32175C18.8987 0.667129 18.6683 0.211297 18.2567 0.055555C17.8452 -0.101454 17.3691 0.08721 16.8019 0.459472C15.6813 1.19513 14.795 2.25748 14.1289 3.28563C13.4262 3.18433 12.8615 3.19953 12.5373 3.20079C12.2106 3.20206 11.6497 3.19066 10.952 3.29576C10.2848 2.26507 9.39715 1.19767 8.27403 0.459472C7.70551 0.08721 7.23068 -0.101454 6.81917 0.055555C6.40766 0.211297 6.17594 0.667129 5.99867 1.32175C5.55297 2.96275 5.7391 4.74682 6.04172 6.14471C5.28834 7.01205 4.85909 7.8642 4.43112 8.9582C3.78662 10.6055 3.54605 12.0642 3.44728 13.0657C3.22696 13.2025 0.0867905 14.9967 0.00195515 18.342C-0.0474266 20.3046 0.842711 22.1596 2.20894 23.284C3.08642 24.007 3.97149 24.2362 5.74037 24.6958C7.61054 25.1807 9.3503 25.2592 10.9217 25.3491C11.4459 25.3795 11.984 25.3935 12.574 25.3922C13.0539 25.3909 13.9314 25.3795 15.0368 25.3023C16.5398 25.1959 17.8718 25.0934 19.4077 24.6958C21.169 24.24 22.049 24.012 22.9391 23.284C24.3092 22.1659 25.1955 20.3008 25.1461 18.342C25.0613 14.9967 21.9211 13.2025 21.7008 13.0657ZM22.2934 21.5759C19.7483 24.6819 14.5759 24.6793 12.5639 24.6781C10.5481 24.6768 5.3947 24.6743 2.8547 21.5759C2.44699 21.077 1.45175 19.8627 1.55178 18.2686C1.62522 17.1264 2.22667 16.3199 2.45458 16.0135C4.68183 13.0252 10.4329 13.0265 12.5778 13.0265C14.7228 13.0265 20.4688 13.0278 22.6948 16.0135C22.9227 16.3199 23.5241 17.1264 23.5963 18.2686C23.6976 19.8627 22.7011 21.077 22.2934 21.5759Z" fill="#8DD7B0"/>
<path d="M22.2935 21.5757C19.7485 24.6817 14.5761 24.6792 12.5641 24.6779C10.5483 24.6767 5.39486 24.6741 2.85486 21.5757C2.44715 21.0769 1.45191 19.8626 1.55194 18.2684C1.62538 17.1263 2.22683 16.3198 2.45474 16.0133C4.68199 13.0251 10.4331 13.0264 12.578 13.0264C14.7229 13.0264 20.469 13.0276 22.6949 16.0133C22.9228 16.3198 23.5243 17.1263 23.5965 18.2684C23.6978 19.8626 22.7013 21.0769 22.2935 21.5757Z" fill="#8DD7B0"/>
<path d="M33.5193 13.2992C33.4471 12.561 33.2698 11.4873 32.795 10.2742C32.4709 9.44741 32.1467 8.80925 31.5643 8.15209C31.782 7.13027 31.9099 5.83874 31.5871 4.64978C31.4554 4.16736 31.2857 3.83182 30.9831 3.71659C30.6805 3.60137 30.3297 3.73939 29.9119 4.01415C29.0863 4.55608 28.4342 5.33859 27.9429 6.09578C27.4251 6.02108 27.0097 6.03247 26.7704 6.03374C26.5299 6.03374 26.1171 6.02614 25.603 6.10338C25.1117 5.34366 24.4584 4.55862 23.6303 4.01415C23.2111 3.73939 22.8617 3.60137 22.5591 3.71659C22.2564 3.83182 22.0855 4.16736 21.9551 4.64978C21.6271 5.859 21.7639 7.17205 21.9867 8.20274C21.4321 8.84217 21.1156 9.46894 20.8003 10.2755C20.3255 11.4885 20.1482 12.5635 20.076 13.3005C19.914 13.4017 17.6006 14.7224 17.5386 17.1864C17.5019 18.6324 18.1577 19.9986 19.1644 20.8267C19.8101 21.3598 20.4622 21.5282 21.7651 21.8663C23.1428 22.2234 24.4242 22.2816 25.5815 22.3474C25.9677 22.3702 26.364 22.3804 26.7983 22.3791C27.1516 22.3791 27.7986 22.3702 28.6128 22.3133C29.7194 22.2348 30.7007 22.1588 31.8327 21.8663C33.1305 21.5307 33.7776 21.3623 34.4335 20.8267C35.4426 20.0037 36.096 18.6299 36.0593 17.1864C35.9972 14.7224 33.6839 13.4005 33.5218 13.3005L33.5193 13.2992ZM33.9561 19.5669C32.0821 21.8549 28.2721 21.8524 26.7894 21.8524C25.3042 21.8524 21.5094 21.8498 19.6379 19.5669C19.3378 19.1997 18.6047 18.3045 18.6782 17.1307C18.7326 16.2899 19.1758 15.6948 19.3429 15.4695C20.9839 13.2688 25.2193 13.2688 26.7996 13.2688C28.3798 13.2688 32.6114 13.2688 34.2511 15.4695C34.4195 15.6948 34.8614 16.2887 34.9146 17.1307C34.9893 18.3045 34.2549 19.1997 33.9548 19.5669H33.9561Z" fill="#8DD7B0"/>
<path d="M33.9564 19.5666C32.0825 21.8546 28.2725 21.8521 26.7897 21.8521C25.3045 21.8521 21.5097 21.8496 19.6383 19.5666C19.3382 19.1994 18.605 18.3042 18.6785 17.1305C18.7329 16.2897 19.1761 15.6946 19.3432 15.4692C20.9842 13.2686 25.2197 13.2686 26.7999 13.2686C28.3801 13.2686 32.6117 13.2686 34.2515 15.4692C34.4199 15.6946 34.8618 16.2884 34.9149 17.1305C34.9897 18.3042 34.2553 19.1994 33.9552 19.5666H33.9564Z" fill="#8DD7B0"/>
<path d="M21.7528 20.4638C19.3299 23.3961 14.4057 23.3937 12.4903 23.3925C10.5712 23.3913 5.66515 23.3889 3.24707 20.4638C2.85892 19.9928 1.91146 18.8465 2.00668 17.3415C2.0766 16.2632 2.64918 15.5018 2.86615 15.2125C4.9865 12.3914 10.4615 12.3926 12.5035 12.3926C14.5455 12.3926 20.0158 12.3938 22.1349 15.2125C22.3519 15.5018 22.9244 16.2632 22.9932 17.3415C23.0896 18.8465 22.1409 19.9928 21.7528 20.4638Z" fill="white"/>
</svg>
