<svg width="31" height="30" viewBox="0 0 31 30" fill="none" xmlns="http://www.w3.org/2000/svg">
<path d="M30.7339 10.5255L30.8715 10.1494C31.3742 8.77734 30.3397 7.33077 28.8553 7.33077C27.3719 7.33077 26.3365 5.8842 26.8392 4.51218L27.4592 2.81859C27.9619 1.44657 26.9274 0 25.4431 0H25.3293C24.4253 0 23.6192 0.557305 23.3132 1.39283L21.6489 5.93794C21.3429 6.77347 20.5368 7.33077 19.6328 7.33077H19.4308C17.9474 7.33077 16.912 5.8842 17.4147 4.51218L18.0347 2.81859C18.5374 1.44657 17.5029 0 16.0186 0H15.9048C15.0008 0 14.1947 0.557305 13.8887 1.39283L12.2244 5.93794C11.9184 6.77347 11.1123 7.33077 10.2083 7.33077H6.76959C5.86559 7.33077 5.05949 7.88808 4.75346 8.7236L4.61587 9.09976C4.11316 10.4718 5.14769 11.9184 6.63201 11.9184H6.98655C8.46999 11.9184 9.5054 13.3649 9.00269 14.7369L7.73621 18.1961C7.43017 19.0316 6.62407 19.5889 5.72007 19.5889H2.28224C1.37824 19.5889 0.57214 20.1462 0.266104 20.9817L0.12852 21.3579C-0.374191 22.7299 0.660335 24.1765 2.14465 24.1765H2.4992C3.98263 24.1765 5.01804 25.623 4.51533 26.9951L4.44742 27.1814C3.94471 28.5534 4.97924 30 6.46356 30H6.57733C7.48132 30 8.28743 29.4427 8.59346 28.6072L9.70648 25.5684C10.0125 24.7329 10.8186 24.1756 11.7226 24.1756H11.9246C13.408 24.1756 14.4434 25.6222 13.9407 26.9942L13.8728 27.1805C13.3701 28.5526 14.4046 29.9991 15.8889 29.9991H16.0027C16.9067 29.9991 17.7128 29.4418 18.0188 28.6063L19.1319 25.5676C19.4379 24.732 20.244 24.1747 21.148 24.1747H24.2322C25.1362 24.1747 25.9423 23.6174 26.2483 22.7819L26.3859 22.4057C26.8886 21.0337 25.8541 19.5871 24.3698 19.5871C22.8863 19.5871 21.8509 18.1406 22.3536 16.7686L23.6201 13.3094C23.9261 12.4739 24.7322 11.9166 25.6362 11.9166H28.7204C29.6244 11.9166 30.4305 11.3593 30.7365 10.5238L30.7339 10.5255ZM15.1455 19.588H14.9435C13.4601 19.588 12.4246 18.1414 12.9274 16.7694L14.1938 13.3103C14.4999 12.4748 15.306 11.9175 16.21 11.9175H16.4119C17.8954 11.9175 18.9308 13.3641 18.4281 14.7361L17.1616 18.1952C16.8556 19.0307 16.0495 19.588 15.1455 19.588Z" fill="#8DD7B0"/>
</svg>
