<svg width="30" height="34" viewBox="0 0 30 34" fill="none" xmlns="http://www.w3.org/2000/svg">
<path d="M3.14672 6.54204C2.27073 6.88617 1.73888 7.78563 1.87184 8.71636L3.60817 20.9176C4.03835 23.9601 5.73557 26.7523 8.35572 28.7546L13.7759 32.8921C14.5033 33.4474 15.5044 33.4474 16.2318 32.8921L21.652 28.7546C21.9101 28.5591 22.1447 28.3557 22.3794 28.1445L3.24057 6.50293L3.14672 6.54204Z" fill="#8DD7B0"/>
<path d="M26.3999 20.9167L28.1362 8.71548C28.2692 7.78474 27.7373 6.87746 26.8613 6.54115L15.7316 2.2316C15.2623 2.05171 14.7383 2.05171 14.269 2.2316L7.38623 4.89867L25.0468 24.8587C25.7351 23.6307 26.2043 22.3011 26.3999 20.9167Z" fill="#8DD7B0"/>
<path d="M29.6532 30.0596L25.0465 24.8506C24.366 26.0629 23.4744 27.1735 22.3794 28.1355L26.5247 32.8205C27.0409 33.3993 27.9247 33.454 28.5035 32.9378L29.5281 32.0306C30.1069 31.5144 30.1616 30.6305 29.6454 30.0518L29.6532 30.0596Z" fill="#8DD7B0"/>
<path d="M3.48302 0.471812C2.96681 -0.106966 2.083 -0.161716 1.50423 0.354492L0.471812 1.26177C-0.106966 1.77797 -0.161716 2.66178 0.354492 3.24056L3.24056 6.50205L7.39368 4.89868L3.48302 0.471812Z" fill="#8DD7B0"/>
<path d="M25.0466 24.8585L7.39385 4.89844L3.24072 6.50181L22.3873 28.1356C23.4823 27.1736 24.3739 26.0629 25.0544 24.8506L25.0466 24.8585Z" fill="white"/>
</svg>
