<svg width="28" height="30" viewBox="0 0 28 30" fill="none" xmlns="http://www.w3.org/2000/svg">
<path d="M4.2558 22.7352V7.26475C4.2558 5.605 5.41117 4.25577 6.83292 4.25577H14.6715C15.5416 4.25577 16.2477 3.54962 16.2477 2.67956V1.57621C16.2477 0.706142 15.5416 0 14.6715 0H6.83292C3.06575 0 0 3.2596 0 7.26475V22.7352C0 26.742 3.06575 30 6.83292 30H14.6715C15.5416 30 16.2477 29.2939 16.2477 28.4238V27.3204C16.2477 26.4504 15.5416 25.7442 14.6715 25.7442H6.83292C5.41117 25.7442 4.2558 24.3934 4.2558 22.7352Z" fill="#8DD7B0"/>
<path d="M20.5096 8.9073C19.8397 9.46371 19.7467 10.4567 20.3016 11.1266L21.7485 12.8715H10.7623C9.89218 12.8715 9.18604 13.5776 9.18604 14.4477V15.551C9.18604 16.4211 9.89218 17.1272 10.7623 17.1272H21.7485L20.3016 18.8721C19.7451 19.542 19.8381 20.5366 20.508 21.0914C21.1779 21.6478 22.1725 21.5548 22.7274 20.8849L26.7735 16.005C27.2574 15.4218 27.2574 14.5769 26.7735 13.9922L22.7274 9.11221C22.171 8.44232 21.1779 8.34933 20.508 8.90415L20.5096 8.9073Z" fill="#8DD7B0"/>
</svg>
