<svg width="30" height="28" viewBox="0 0 30 28" fill="none" xmlns="http://www.w3.org/2000/svg">
<path d="M10.7342 2.46296L0.66747 19.8993C-1.22896 23.1833 1.14158 27.2882 4.93324 27.2882H25.0666C28.8595 27.2882 31.2288 23.1833 29.3324 19.8993L19.2669 2.46296C17.3705 -0.820986 12.6306 -0.820986 10.7342 2.46296Z" fill="#8DD7B0"/>
<path d="M13.1948 22.3513V21.5483C13.1948 20.7886 13.8106 20.1728 14.5703 20.1728H15.2521C16.0119 20.1728 16.6276 20.7886 16.6276 21.5483V22.3513C16.6276 23.1111 16.0119 23.7268 15.2521 23.7268H14.5703C13.8106 23.7268 13.1948 23.1111 13.1948 22.3513ZM14.6412 5.74316H15.3841C16.1643 5.74316 16.7884 6.39131 16.7584 7.17149L16.3707 17.267C16.3419 18.0051 15.7358 18.5897 14.9964 18.5897C14.2559 18.5897 13.6473 18.0027 13.6221 17.2622L13.2668 7.16669C13.2392 6.38891 13.8634 5.74316 14.6412 5.74316Z" fill="white"/>
</svg>
