<svg width="318" height="370" viewBox="0 0 318 370" fill="none" xmlns="http://www.w3.org/2000/svg">
<path d="M158.641 0.00056212C145.416 0.027227 88.3796 0.107221 45.0093 41.4644C-23.3994 106.7 5.77194 214.066 8.46509 223.385C39.2363 330.111 148.096 366.189 158.202 369.349C168.001 366.362 278.3 330.725 309.378 223.385C312.018 214.279 341.349 106.793 272.82 41.4511C229.223 -0.106097 171.814 -0.0127703 158.641 0.00056212Z" fill="#8DD7B0"/>
<path d="M127.963 73.7155C130.541 73.7155 132.63 70.7011 132.63 66.9826C132.63 63.2642 130.541 60.2498 127.963 60.2498C125.386 60.2498 123.297 63.2642 123.297 66.9826C123.297 70.7011 125.386 73.7155 127.963 73.7155Z" fill="white"/>
<path d="M190.533 73.7155C193.11 73.7155 195.199 70.7011 195.199 66.9826C195.199 63.2642 193.11 60.2498 190.533 60.2498C187.955 60.2498 185.866 63.2642 185.866 66.9826C185.866 70.7011 187.955 73.7155 190.533 73.7155Z" fill="white"/>
<path d="M158.961 94.2207C137.11 94.2207 78.5003 94.2074 55.7952 132.538C53.4753 136.458 47.3424 146.804 46.6091 161.456C45.5825 181.895 55.7285 197.48 59.8882 203.867C85.7664 243.61 138.27 243.637 158.815 243.65C179.307 243.65 232.023 243.69 257.955 203.867C262.114 197.48 272.26 181.908 271.234 161.456C270.501 146.817 264.368 136.471 262.048 132.538C239.369 94.2474 180.84 94.234 158.961 94.2207Z" fill="white"/>
</svg>
