<svg width="30" height="30" viewBox="0 0 30 30" fill="none" xmlns="http://www.w3.org/2000/svg">
<path d="M14.9999 27.2626C21.7724 27.2626 27.2626 21.7724 27.2626 14.9999C27.2626 8.22748 21.7724 2.7373 14.9999 2.7373C8.22748 2.7373 2.7373 8.22748 2.7373 14.9999C2.7373 21.7724 8.22748 27.2626 14.9999 27.2626Z" fill="white"/>
<path d="M15 0C6.71393 0 0 6.71393 0 15C0 23.2861 6.71393 30 15 30C23.2861 30 30 23.2861 30 15C30 6.71393 23.2861 0 15 0ZM16.8557 23.0025C16.8557 23.9766 16.0666 24.7719 15.0863 24.7719H14.5068C13.5265 24.7719 12.7374 23.9766 12.7374 23.0025V22.7312C12.7374 21.7571 13.5265 20.9618 14.5068 20.9618H15.0863C16.0666 20.9618 16.8557 21.7571 16.8557 22.7312V23.0025ZM18.3169 14.5376C17.4291 15.4254 16.5906 16.2207 16.5906 17.6387V17.7928C16.5906 18.7731 15.8015 19.5623 14.8212 19.5623C13.8409 19.5623 13.0518 18.7731 13.0518 17.7928V17.5709C13.0518 15.0432 14.3342 13.8471 15.4439 12.8052C16.2824 12.0099 17.0407 11.3009 17.0407 10.1911C17.0407 8.90876 16.0666 8.24291 14.8274 8.24291C13.8039 8.24291 13.1689 8.71147 12.8853 9.51295C12.6326 10.2219 11.9729 10.7028 11.2146 10.7028C10 10.7028 9.11837 9.50062 9.53761 8.36005C10.3206 6.25154 12.2441 5.22811 14.7842 5.22811C17.8175 5.22811 20.5857 6.68927 20.5857 9.81504C20.5857 11.9667 19.8089 13.0949 18.3292 14.5314L18.3169 14.5376Z" fill="#8DD7B0"/>
</svg>
